<?xml version="1.0" encoding="UTF-8"?><svg id="Layer_1" xmlns="http://www.w3.org/2000/svg" viewBox="0 0 323.24 300"><defs><style>.cls-1{fill:#a6caff;}</style></defs><path class="cls-1" d="M184.8,97.74l17.83-30.88,1.4.81,27.47-47.57h5.13l2.56,4.44-27.47,47.58,1.4.81-17.83,30.89c-3.25-2.37-6.77-4.41-10.49-6.06ZM191.47,60.43l-.72-.42,10.69-39.91h-10.03l-9.35,34.89-.72-.42-10.46,39.02c3.78.62,7.43,1.6,10.92,2.92l9.67-36.09ZM90.28,84.38l28.17,28.17c1.77-2.04,3.68-3.94,5.71-5.71l-26.64-26.64,2.17-1.25-29.83-29.83-6.69,11.59,24.93,24.93,2.17-1.25ZM166.87,20.1h-10.5v72.99c3.89-.35,7.58-.27,10.5,0V20.1ZM247.46,92.75l-40,23.09c2.65,3.55,4.89,7.42,6.67,11.54l39.99-23.09v-3.5l21.82-12.6-3.63-6.29-21.82,12.6-3.03-1.75ZM111.52,72.11l17.76,30.75c2.43-1.67,5-3.17,7.69-4.45l-17.75-30.74,1.4-.81-27-46.77h-6.99l-3.5,6.06,27,46.77,1.4-.81ZM132.49,60.01l9.7,36.22c3.01-1.09,6.14-1.92,9.37-2.49l-10.38-38.74.72-.42-9.24-34.48h-11.71l10.81,40.33.72-.42ZM223.54,78.94l-26.34,26.34c3.38,2.69,6.44,5.76,9.14,9.14l28.79-28.79-2.17-1.25,25.85-25.85-4.18-7.24-28.91,28.91-2.17-1.25ZM254.12,195.71l-39.99-23.09c-1.78,4.12-4.02,7.99-6.67,11.54l40,23.09,3.03-1.75,21.82,12.6,3.63-6.29-21.82-12.6v-3.5ZM254.12,118.11l-39.46,10.57c1.69,4.2,2.9,8.64,3.55,13.26l35.91-9.62v-3.76l39.08-10.47-3.34-5.79-35.73,9.57v-3.76ZM254.12,167.68l-35.91-9.62c-.65,4.62-1.86,9.07-3.55,13.26l39.46,10.57v-3.76l35.73,9.57,3.34-5.79-39.08-10.47v-3.76ZM309.99,147.17h-55.87v-4.44h-35.81c.68,5.38.51,10.5,0,14.54h35.81v-4.44h55.87l1.63-2.83-1.63-2.83ZM191.48,239.57l-9.67-36.09c-3.49,1.32-7.14,2.3-10.92,2.92l10.46,39.02.72-.42,9.35,34.9h10.03l-10.69-39.91.72-.42ZM69.12,100.79l41.28,23.83c1.08-2.18,2.29-4.28,3.64-6.29l-41.28-23.83,3.03-1.75-23.33-13.47-6.66,11.54,23.33,13.47v-3.5ZM156.37,206.92v72.99s10.5,0,10.5,0v-72.99c-3.57.33-7.23.3-10.5,0ZM235.13,214.37l-28.79-28.79c-2.69,3.38-5.76,6.44-9.14,9.14l26.34,26.34,2.17-1.25,28.91,28.91,4.18-7.24-25.85-25.85,2.17-1.25ZM142.2,203.77l-9.7,36.22-.72-.42-10.81,40.33h11.71l9.24-34.48-.72-.42,10.38-38.74c-3.22-.57-6.35-1.4-9.37-2.49ZM213.12,227.08l-17.83-30.89c-3.25,2.37-6.77,4.41-10.49,6.06l17.83,30.88,1.4-.81,27.47,47.57h5.13l2.56-4.44-27.47-47.58,1.4-.81ZM69.12,152.83h35.41c-.1-2.01-.07-4.12,0-5.65h-35.41v-4.44H15.82l-4.2,7.27,4.2,7.27h53.3v-4.44ZM69.12,128.56l36.53,9.79c.44-2.13,1.01-4.21,1.68-6.24l-38.21-10.24v-3.76l-33.85-9.07-7.11,12.31,40.96,10.97v-3.76ZM69.12,178.13l38.21-10.24c-.67-2.03-1.24-4.11-1.68-6.24l-36.53,9.79v-3.76l-40.96,10.97,7.11,12.31,33.85-9.07v-3.76ZM97.53,219.81l26.64-26.64c-2.04-1.77-3.94-3.68-5.71-5.71l-28.17,28.17-2.17-1.25-24.93,24.93,6.69,11.59,29.83-29.83-2.17-1.25ZM72.76,205.5l41.28-23.83c-1.34-2.01-2.55-4.11-3.64-6.29l-41.28,23.83v-3.5l-23.33,13.47,6.66,11.54,23.33-13.47-3.03-1.75ZM136.97,201.59c-2.69-1.29-5.25-2.78-7.69-4.45l-17.76,30.75-1.4-.81-27,46.77,3.5,6.06h7l27-46.77-1.4-.81,17.75-30.74Z"/></svg>