<?xml version="1.0" encoding="UTF-8"?><svg id="Layer_1" xmlns="http://www.w3.org/2000/svg" viewBox="0 0 573.99 112.05"><defs><style>.cls-1{fill:#a6caff;}</style></defs><path class="cls-1" d="M7.16,14.29h30.75c19.77,0,31.65,8.88,31.65,26.79s-11.88,26.79-31.65,26.79h-19.66v29.89H7.16V14.29ZM38.24,57.99c12.85,0,19.88-5.93,19.88-16.91s-7.03-16.91-19.88-16.91h-19.99v33.82h19.99ZM140.61,67.87h-43.72v29.9h-11.09V14.29h11.09v43.69h43.72V14.29h11.09v83.48h-11.09v-29.9ZM194.65,14.29h22.74l29.99,83.48h-11.86l-10.68-29.97h-37.62l-10.68,29.97h-11.86l29.99-83.48ZM221.35,57.98l-15.28-43.25-15.38,43.25h30.66ZM393.06,14.29h22.74l29.99,83.48h-11.86l-10.68-29.97h-37.62l-10.68,29.97h-11.86l29.99-83.48ZM419.76,57.98l-15.28-43.25-15.38,43.25h30.66ZM339.01,14.29h11.09v83.48h-11.09V14.29ZM324.48,97.77l-18.64-32c10.77-3.58,16.89-11.75,16.89-24.69,0-17.91-11.88-26.8-31.65-26.8h-30.75v83.48h11.09v-29.89h22.69l17.4,29.89h12.96ZM271.42,57.99V24.17h19.99c12.85,0,19.88,5.93,19.88,16.91s-7.03,16.91-19.88,16.91h-19.99ZM462.99,14.29v14.83h-2.88v-6.46h-6.5v6.46h-2.88v-14.83h2.88v5.89h6.5v-5.89h2.88ZM473.41,14.29h9.91v2.48h-7.03v3.26h5.63v2.5h-5.63v4.09h7.27v2.5h-10.15v-14.83ZM497.76,14.29h2.69l5.7,14.83h-2.96l-1.21-3.28h-5.74l-1.21,3.28h-2.97l5.7-14.83ZM497.15,23.4h3.94l-1.97-5.34-1.97,5.34ZM515.19,14.29h2.88v12.33h6.88v2.5h-9.77v-14.83ZM535.57,16.77h-4.47v-2.48h11.82v2.48h-4.47v12.35h-2.88v-12.35ZM564.26,14.29v14.83h-2.88v-6.46h-6.5v6.46h-2.88v-14.83h2.88v5.89h6.5v-5.89h2.88Z"/></svg>