<?xml version="1.0" encoding="UTF-8"?><svg id="Layer_1" xmlns="http://www.w3.org/2000/svg" viewBox="0 0 453.66 99.16"><defs><style>.cls-1{fill:#a6caff;}</style></defs><path class="cls-1" d="M7.52,7.84h30.75c19.77,0,31.65,8.88,31.65,26.79s-11.88,26.79-31.65,26.79h-19.66v29.89H7.52V7.84ZM38.6,51.55c12.85,0,19.88-5.93,19.88-16.91s-7.03-16.91-19.88-16.91h-19.99v33.82h19.99ZM140.97,61.42h-43.72v29.9h-11.09V7.84h11.09v43.69h43.72V7.84h11.09v83.48h-11.09v-29.9ZM195.01,7.84h22.74l29.99,83.48h-11.86l-10.68-29.97h-37.62l-10.68,29.97h-11.86L195.01,7.84ZM221.71,51.54l-15.28-43.25-15.38,43.25h30.66ZM393.42,7.84h22.74l29.99,83.48h-11.86l-10.68-29.97h-37.62l-10.68,29.97h-11.86l29.99-83.48ZM420.12,51.54l-15.28-43.25-15.38,43.25h30.66ZM339.37,7.84h11.09v83.48h-11.09V7.84ZM324.84,91.32l-18.64-32c10.77-3.58,16.89-11.75,16.89-24.69,0-17.91-11.88-26.8-31.65-26.8h-30.75v83.48h11.09v-29.89h22.69l17.4,29.89h12.96ZM271.78,51.55V17.73h19.99c12.85,0,19.88,5.93,19.88,16.91s-7.03,16.91-19.88,16.91h-19.99Z"/></svg>